<svg xmlns="http://www.w3.org/2000/svg" viewBox="0 0 420 300">
<defs>
 <linearGradient id="cup" x1="0" y1="0" x2="1" y2="1"><stop offset="0" stop-color="#fffdf5"/><stop offset=".58" stop-color="#e8dfcf"/><stop offset="1" stop-color="#bcb09e"/></linearGradient>
 <radialGradient id="coffee"><stop offset="0" stop-color="#d8a15c"/><stop offset=".45" stop-color="#7b421f"/><stop offset="1" stop-color="#2e160b"/></radialGradient>
 <linearGradient id="gold" x1="0" x2="1"><stop stop-color="#ffe9a0"/><stop offset=".55" stop-color="#dda13a"/><stop offset="1" stop-color="#8d5415"/></linearGradient>
 <filter id="s"><feDropShadow dx="0" dy="14" stdDeviation="12" flood-color="#000" flood-opacity=".5"/></filter>
</defs>
<g filter="url(#s)">
 <ellipse cx="215" cy="254" rx="132" ry="23" fill="#000" opacity=".28"/>
 <path d="M85 82h232l-24 128c-4 24-24 42-49 42H157c-25 0-45-18-49-42z" fill="url(#cup)" stroke="#fff7df" stroke-opacity=".55" stroke-width="4"/>
 <ellipse cx="201" cy="84" rx="116" ry="38" fill="#f3ead9"/>
 <ellipse cx="201" cy="84" rx="101" ry="29" fill="url(#coffee)"/>
 <ellipse cx="201" cy="78" rx="76" ry="18" fill="#e0a96c" opacity=".55"/>
 <path d="M314 117h36c52 0 59 80 5 98h-59l8-39h45c18-5 18-27-3-28h-38z" fill="url(#cup)" stroke="#fff7df" stroke-opacity=".45" stroke-width="4"/>
 <text x="200" y="177" text-anchor="middle" font-family="cursive" font-size="34" fill="#a77432">StarClub</text>
 <path d="M201 184l7 17 18 1-14 12 5 18-16-10-16 10 5-18-14-12 18-1z" fill="url(#gold)"/>
</g>
<g fill="#b16e34"><ellipse cx="69" cy="238" rx="13" ry="8" transform="rotate(-28 69 238)"/><ellipse cx="94" cy="254" rx="12" ry="7" transform="rotate(18 94 254)"/><ellipse cx="340" cy="248" rx="13" ry="8" transform="rotate(30 340 248)"/></g>
<g stroke="#e7b24e" stroke-width="5" fill="none" stroke-linecap="round" opacity=".7"><path d="M150 31c-15 19 17 24 0 45"/><path d="M205 23c-17 22 18 28 0 50"/><path d="M258 31c-15 19 17 24 0 45"/></g>
</svg>
